# xmcd
# 
# Track frame offsets:
#     150
#     19341
#     34205
#     50453
#     70208
#     88683
#     106820
#     124613
#     141061
#     160499
# 
# Disc length: 2528
# 
# Revision: 2
# Processed by: cddbd v1.5.2PL0 Copyright (c) Steve Scherf et al.
# Submitted via: BonkEnc v1.0.6
# 
DISCID=8509de0a
DTITLE=Unrest - Wach Out
DYEAR=1997
DGENRE=Heavy Metal
TTITLE0=Watch Out
TTITLE1=Sadness And Darkness
TTITLE2=Down On My Knees
TTITLE3=Rising Storm
TTITLE4=Heart Of Stone
TTITLE5=Don't X The Line
TTITLE6=Hold On The Night
TTITLE7=Burning Witch
TTITLE8=Nightmare
TTITLE9=Hunter
EXTD=YEAR: 1997
EXTT0=
EXTT1=
EXTT2=
EXTT3=
EXTT4=
EXTT5=
EXTT6=
EXTT7=
EXTT8=
EXTT9=
PLAYORDER=
